<?xml version="1.0" standalone="no"?>
<!DOCTYPE svg PUBLIC "-//W3C//DTD SVG 20010904//EN"
 "http://www.w3.org/TR/2001/REC-SVG-20010904/DTD/svg10.dtd">
<svg version="1.0" xmlns="http://www.w3.org/2000/svg"
 width="512.000000pt" height="512.000000pt" viewBox="0 0 512.000000 512.000000"
 preserveAspectRatio="xMidYMid meet">
<metadata>
Created by potrace 1.14, written by Peter Selinger 2001-2017
</metadata>
<g transform="translate(0.000000,512.000000) scale(0.100000,-0.100000)"
fill="#000000" stroke="none">
<path d="M635 4478 l-640 -643 643 640 c597 595 646 645 639 645 -1 0 -290
-289 -642 -642z"/>
<path d="M2531 5096 c-19 -20 -34 -24 -127 -29 -736 -45 -1415 -414 -1858
-1007 -290 -389 -462 -858 -492 -1340 -6 -94 -9 -108 -33 -135 l-26 -30 27 24
28 24 0 -99 c0 -264 69 -609 175 -872 l35 -86 -132 -136 -133 -135 132 130
c73 71 135 126 138 123 3 -3 23 -41 44 -84 87 -180 236 -398 384 -564 l85 -95
-391 -395 -392 -395 395 392 395 391 95 -85 c166 -148 384 -297 564 -384 43
-21 81 -41 84 -44 3 -3 -52 -65 -123 -138 l-130 -132 135 133 136 132 86 -35
c263 -106 608 -175 872 -175 l99 0 -24 -28 -24 -27 30 26 c27 24 41 27 135 33
733 45 1412 414 1854 1006 290 389 462 858 492 1340 6 94 9 108 33 135 l26 30
-27 -24 -28 -24 0 99 c0 264 -69 609 -175 872 l-35 86 132 136 133 135 -132
-130 c-73 -71 -135 -126 -138 -123 -3 3 -23 41 -44 84 -87 180 -236 398 -384
564 l-85 95 391 395 392 395 -395 -392 -395 -391 -95 85 c-166 148 -384 297
-564 384 -43 21 -81 41 -84 44 -3 3 52 65 123 138 l130 132 -135 -133 -136
-132 -86 35 c-263 106 -608 175 -872 175 l-99 0 23 25 c13 14 21 25 18 25 -2
0 -14 -11 -27 -24z m367 -1638 c2 -14 -45 -192 -103 -395 l-106 -368 -122
-122 c-66 -67 -122 -121 -124 -120 -7 8 300 1044 313 1054 12 8 30 7 77 -6 55
-14 62 -19 65 -43z m-856 -255 c26 -26 48 -54 48 -63 0 -8 -127 -142 -282
-297 l-283 -283 283 -283 c155 -155 282 -289 282 -297 0 -23 -92 -110 -116
-110 -11 0 -29 9 -39 20 -18 20 -18 22 46 88 l64 67 -68 -65 -67 -65 -310 310
c-256 256 -310 314 -308 335 1 18 92 116 327 352 179 180 328 325 332 322 4
-2 10 0 14 6 12 19 29 10 77 -37z m1143 27 c18 -20 18 -22 -46 -88 l-64 -67
68 65 67 65 310 -310 c267 -267 310 -314 308 -337 -2 -21 -74 -99 -329 -354
-180 -179 -330 -326 -335 -326 -5 -1 -15 -3 -22 -6 -16 -6 -112 86 -112 108 0
8 127 142 282 297 l283 283 -283 283 c-155 155 -282 289 -282 297 0 23 92 110
116 110 11 0 29 -9 39 -20z m-656 -1085 c-87 -301 -156 -525 -165 -532 -12 -8
-30 -7 -77 6 -54 14 -62 19 -65 42 -2 15 45 193 103 395 l106 369 122 122 c66
67 122 121 124 120 1 -2 -65 -237 -148 -522z"/>
<path d="M1620 2903 l-325 -328 328 325 c304 302 331 330 324 330 -1 0 -148
-147 -327 -327z"/>
<path d="M3490 2213 l-325 -328 328 325 c180 179 327 326 327 327 0 7 -28 -20
-330 -324z"/>
<path d="M4475 638 l-640 -643 643 640 c353 352 642 641 642 642 0 7 -50 -42
-645 -639z"/>
</g>
</svg>
